<svg width="30" height="30" viewBox="0 0 30 30" fill="none" xmlns="http://www.w3.org/2000/svg">
<path d="M11.3326 19.4312L15.7521 14.7437L11.3326 10.0562C11.2272 9.94438 11.1435 9.8116 11.0864 9.66546C11.0294 9.51932 11 9.36269 11 9.20451C11 9.04633 11.0294 8.8897 11.0864 8.74357C11.1435 8.59743 11.2272 8.46464 11.3326 8.35279C11.4381 8.24094 11.5633 8.15222 11.7011 8.09169C11.8388 8.03116 11.9865 8 12.1356 8C12.2848 8 12.4325 8.03116 12.5702 8.09169C12.708 8.15222 12.8332 8.24094 12.9387 8.35279L18.1668 13.898C18.6111 14.3692 18.6111 15.1303 18.1668 15.6015L12.9387 21.1467C12.8333 21.2587 12.7081 21.3475 12.5703 21.4082C12.4325 21.4688 12.2848 21.5 12.1356 21.5C11.9865 21.5 11.8388 21.4688 11.701 21.4082C11.5632 21.3475 11.438 21.2587 11.3326 21.1467C10.8998 20.6755 10.8884 19.9023 11.3326 19.4312Z" fill="white"/>
</svg>
