<svg width="20" height="20" viewBox="0 0 20 20" fill="none" xmlns="http://www.w3.org/2000/svg">
<path d="M7.22175 12.6208L10.1681 9.4958L7.22175 6.37082C7.15145 6.29625 7.09568 6.20773 7.05763 6.11031C7.01958 6.01288 7 5.90846 7 5.80301C7 5.69756 7.01958 5.59314 7.05763 5.49571C7.09568 5.39828 7.15145 5.30976 7.22175 5.2352C7.29205 5.16063 7.37551 5.10148 7.46737 5.06113C7.55922 5.02077 7.65767 5 7.75709 5C7.85652 5 7.95497 5.02077 8.04682 5.06113C8.13868 5.10148 8.22214 5.16063 8.29244 5.2352L11.7779 8.93202C12.074 9.24613 12.074 9.75353 11.7779 10.0676L8.29244 13.7645C8.22219 13.8391 8.13875 13.8984 8.04688 13.9388C7.95502 13.9792 7.85655 14 7.75709 14C7.65764 14 7.55917 13.9792 7.46731 13.9388C7.37544 13.8984 7.292 13.8391 7.22175 13.7645C6.93319 13.4504 6.9256 12.9349 7.22175 12.6208Z" fill="white"/>
</svg>
