<svg width="30" height="30" viewBox="0 0 30 30" fill="none" xmlns="http://www.w3.org/2000/svg">
<path d="M13.3958 19.5002C13.293 19.4998 13.1913 19.4784 13.0971 19.4371C13.0029 19.3958 12.9182 19.3356 12.8483 19.2602L9.2033 15.3827C9.06704 15.2375 8.99405 15.0441 9.00038 14.8451C9.00671 14.646 9.09184 14.4577 9.23705 14.3214C9.38225 14.1852 9.57564 14.1122 9.77466 14.1185C9.97368 14.1248 10.162 14.21 10.2983 14.3552L13.3883 17.6477L19.6958 10.7477C19.7598 10.668 19.8394 10.6022 19.9298 10.5544C20.0202 10.5066 20.1193 10.4777 20.2212 10.4696C20.3231 10.4615 20.4256 10.4744 20.5224 10.5073C20.6192 10.5403 20.7082 10.5927 20.784 10.6613C20.8597 10.7299 20.9207 10.8133 20.9631 10.9063C21.0055 10.9994 21.0284 11.1001 21.0304 11.2023C21.0325 11.3045 21.0136 11.406 20.975 11.5007C20.9363 11.5953 20.8788 11.6811 20.8058 11.7527L13.9508 19.2527C13.8815 19.3294 13.7971 19.3911 13.7029 19.4336C13.6087 19.4762 13.5067 19.4989 13.4033 19.5002H13.3958Z" fill="white"/>
<circle cx="15" cy="15" r="14.5" stroke="#9A9A9A"/>
</svg>
