<svg width="18" height="18" viewBox="0 0 18 18" fill="none" xmlns="http://www.w3.org/2000/svg">
<path d="M14.6726 4.70775L14.9002 4.93532C15.0207 5.05588 15.0884 5.21936 15.0884 5.38982C15.0884 5.56029 15.0207 5.72377 14.9002 5.84432L7.5266 13.2179C7.40604 13.3384 7.24256 13.4061 7.0721 13.4061C6.90163 13.4061 6.73815 13.3384 6.6176 13.2179L3.42259 10.0229C3.30208 9.90234 3.23438 9.73886 3.23438 9.56839C3.23437 9.39793 3.30208 9.23445 3.42259 9.11389L3.65017 8.88632C3.77072 8.76581 3.9342 8.6981 4.10467 8.6981C4.27513 8.6981 4.43861 8.76581 4.55917 8.88632L6.6176 10.9448C6.73815 11.0653 6.90163 11.133 7.0721 11.133C7.24256 11.133 7.40604 11.0653 7.5266 10.9448L13.7636 4.70775C13.8842 4.58723 14.0476 4.51953 14.2181 4.51953C14.3886 4.51953 14.552 4.58723 14.6726 4.70775Z" fill="black"/>
</svg>
