<svg viewBox="0 0 32 32" width="32px" height="32px" xmlns="http://www.w3.org/2000/svg">
<path d="M0.288843 30.2835C-0.101681 30.674 -0.0949555 31.3139 0.295569 31.7044C0.686093 32.095 1.32598 32.1017 1.71651 31.7112L15.9998 17.4279L30.2832 31.7113C30.6738 32.1019 31.3137 32.0951 31.7042 31.7046C32.0947 31.3141 32.1014 30.6742 31.7109 30.2837L17.4274 16.0002L31.7109 1.71673C32.1015 1.32621 32.0947 0.686314 31.7042 0.29579C31.3137 -0.094734 30.6738 -0.101461 30.2833 0.289063L15.9998 14.5726L1.71649 0.289258C1.32596 -0.101266 0.68607 -0.0945402 0.295546 0.295984C-0.0949782 0.686508 -0.101705 1.3264 0.288819 1.71692L14.5721 16.0002L0.288843 30.2835Z" />
</svg>
