<svg width="25" height="25" viewBox="0 0 25 25" fill="none" xmlns="http://www.w3.org/2000/svg">
<path d="M15 2V5.96983C15 6.50745 15.2286 7.0241 15.6331 7.40497C16.0397 7.78624 16.5903 8.00021 17.1641 8H22" stroke="white" stroke-width="1.5" stroke-linecap="round" stroke-linejoin="round"/>
<path d="M7.48745 7.55938H11.2472M7.48745 12.5002H17.5125M7.48745 17.441H17.5125M22 8.60475V18.3298C21.9771 18.9659 21.8267 19.5912 21.5575 20.1698C21.2884 20.7483 20.9057 21.2687 20.4316 21.7008C19.4731 22.5773 18.2007 23.0427 16.8942 22.9948H8.15418C7.50324 23.0245 6.85276 22.9271 6.24014 22.7081C5.62752 22.4892 5.06486 22.153 4.58448 21.719C4.10602 21.2855 3.71959 20.7627 3.4476 20.1809C3.17562 19.5991 3.02348 18.9699 3 18.3298V6.66838C3.02286 6.03227 3.17321 5.40691 3.44239 4.82834C3.71156 4.24978 4.09424 3.72943 4.56836 3.29731C5.5269 2.42087 6.79928 1.95545 8.10582 2.00336H14.6856C15.69 2.0002 16.6594 2.36648 17.4043 3.03058L20.8128 6.12015C21.1764 6.42902 21.4701 6.80986 21.6746 7.23793C21.8792 7.66599 21.99 8.13169 22 8.60475Z" stroke="white" stroke-width="1.5" stroke-linecap="round" stroke-linejoin="round"/>
</svg>
