<svg width="32" height="33" viewBox="0 0 32 33" fill="none" xmlns="http://www.w3.org/2000/svg">
<path d="M19.2031 2.63989V7.88006C19.2031 8.58973 19.4957 9.27171 20.0134 9.77445C20.534 10.2777 21.2387 10.5602 21.9732 10.5599H28.1631" stroke="#B8B9BC" stroke-width="1.5" stroke-linecap="round" stroke-linejoin="round"/>
<path d="M9.58769 9.97828H14.4001M9.58769 16.5002H22.4198M9.58769 23.0221H22.4198M28.1638 11.3582V24.1952C28.1344 25.0348 27.9419 25.8603 27.5974 26.624C27.2528 27.3877 26.7631 28.0745 26.1562 28.645C24.9293 29.8019 23.3007 30.4163 21.6283 30.353H10.4411C9.60789 30.3922 8.77528 30.2636 7.99113 29.9746C7.20698 29.6856 6.48677 29.2419 5.87189 28.669C5.25945 28.0968 4.76483 27.4067 4.41668 26.6387C4.06854 25.8708 3.8738 25.0402 3.84375 24.1952V8.80215C3.87301 7.96249 4.06546 7.13702 4.41001 6.37331C4.75455 5.6096 5.24438 4.92275 5.85126 4.35234C7.07819 3.19544 8.70683 2.58109 10.3792 2.64433H18.8013C20.0869 2.64015 21.3278 3.12365 22.2813 4.00025L26.6441 8.07849C27.1096 8.4862 27.4855 8.98891 27.7473 9.55395C28.0091 10.119 28.151 10.7337 28.1638 11.3582Z" stroke="#B8B9BC" stroke-width="1.5" stroke-linecap="round" stroke-linejoin="round"/>
</svg>
