<svg width="83" height="26" viewBox="0 0 83 26" fill="none" xmlns="http://www.w3.org/2000/svg">
<path fill-rule="evenodd" clip-rule="evenodd" d="M71.8844 0.0739167C69.5767 0.276282 67.3474 1.08594 65.4397 2.41466C64.6859 2.93973 63.2665 4.34723 62.6962 5.13534C62.1319 5.91513 61.278 7.57331 60.9933 8.44216C60.0489 11.3246 60.1504 14.5945 61.2705 17.375C62.7304 20.9991 65.8007 23.6641 69.6252 24.627C70.9144 24.9515 71.637 25.0334 73.1666 25.0282C76.2851 25.0177 78.5707 24.3949 80.6762 22.982C81.3783 22.5109 82.8052 21.3071 82.9694 21.0475C83.0473 20.9242 82.9087 20.7592 81.3805 19.1568C80.4596 18.1911 79.6808 17.3928 79.6498 17.3826C79.6188 17.3724 79.3164 17.5932 78.9779 17.8732C77.6963 18.9333 76.5078 19.5854 75.264 19.911C74.6327 20.0762 74.4663 20.0911 73.2354 20.0928C71.9674 20.0947 71.8608 20.0847 71.2756 19.9097C69.7141 19.4426 68.5387 18.6507 67.6115 17.4409C66.5565 16.0643 66.015 14.3999 66.015 12.534C66.015 8.8979 68.1219 6.01594 71.4355 5.11959C72.1428 4.92824 74.1584 4.90561 74.9545 5.08007C76.4217 5.40155 77.7567 6.10844 79.0838 7.26669C79.2781 7.43615 79.4636 7.56567 79.4961 7.55446C79.5285 7.54317 80.2689 6.72824 81.1412 5.74344L82.7272 3.9529L82.2964 3.56128C81.1893 2.55507 80.1008 1.78716 79.0398 1.26392C77.0548 0.284863 74.4393 -0.15007 71.8844 0.0739167ZM8.46068 0.136417C4.77862 0.515201 2.09512 2.48588 1.26532 5.42054C1.04699 6.19277 0.963512 7.82473 1.09664 8.71912C1.45037 11.0963 2.82527 12.6543 5.51682 13.728C6.41153 14.0849 7.52478 14.4257 9.33097 14.8954C11.5375 15.4693 12.8831 15.9839 13.4977 16.4891C13.9118 16.8295 14.1151 17.2957 14.1151 17.9046C14.1151 18.566 13.9288 19.0051 13.4687 19.428C12.7681 20.072 11.8256 20.3077 10.1824 20.25C9.03947 20.2099 8.46466 20.1118 7.46633 19.7862C6.28645 19.4014 4.6785 18.5154 3.61429 17.6636C3.39802 17.4905 3.19722 17.3753 3.16807 17.4076C3.13891 17.4399 2.41763 18.2901 1.56521 19.2967L0.0154419 21.127L0.603731 21.5933C2.79983 23.3345 5.42351 24.4405 8.28635 24.8319C12.0121 25.3413 15.333 24.5591 17.362 22.6941C19.1161 21.0819 19.8813 18.4551 19.3474 15.8786C19.044 14.4145 18.3048 13.288 17.0389 12.3604C15.7769 11.4357 14.2954 10.8338 11.484 10.1037C8.22048 9.25621 7.08227 8.76135 6.62216 7.98993C6.47418 7.74182 6.43244 7.57284 6.4085 7.12479C6.38258 6.63892 6.40032 6.52202 6.54817 6.20642C6.9851 5.27371 8.00373 4.7975 9.56189 4.7975C10.4288 4.7975 11.1755 4.92412 12.1716 5.24013C13.0345 5.51385 14.4409 6.18858 15.3135 6.74743C15.8133 7.0675 15.961 7.13385 16.0196 7.06446C16.0603 7.01621 16.6956 6.1175 17.4313 5.0673L18.7689 3.1579L18.4787 2.94209C16.0403 1.12865 13.3071 0.20743 10.0704 0.108106C9.50522 0.0907411 8.78085 0.103511 8.46068 0.136417ZM37.8536 0.42162C37.8356 0.468511 36.5962 4.1554 35.0994 8.61466C33.6027 13.0739 32.3657 16.7345 32.3506 16.7493C32.313 16.7863 32.5161 17.4284 29.8089 8.71642C28.4635 4.38702 27.3308 0.746011 27.2917 0.625201L27.2206 0.405606H24.3377C22.7522 0.405606 21.4559 0.428444 21.457 0.456282C21.4582 0.484187 23.3427 5.96473 25.6448 12.6353L29.8305 24.7637L32.1978 24.7815L34.565 24.7993L37.2701 17.0788C38.7579 12.8325 40.01 9.26993 40.0524 9.16189C40.1232 8.98189 40.3622 9.62817 42.9081 16.8824L45.6866 24.7992L48.0532 24.7815L50.4198 24.7637L54.6055 12.6353C56.9076 5.96473 58.792 0.484187 58.7929 0.456282C58.7939 0.428444 57.5276 0.405606 55.9791 0.405606H53.1635L52.9237 1.16574C52.7918 1.58385 51.6577 5.22486 50.4033 9.25696C49.149 13.2891 48.0984 16.6311 48.0687 16.6837C48.0345 16.7442 47.6332 15.6391 46.9768 13.677C46.406 11.9706 45.1681 8.27892 44.2258 5.47317L42.5126 0.371822L40.1995 0.354052C38.3857 0.340065 37.8793 0.35466 37.8536 0.42162Z" fill="white"/>
</svg>
