<svg width="221" height="104" viewBox="0 0 221 104" fill="none" xmlns="http://www.w3.org/2000/svg">
<path d="M94.3379 5.59967C94.3379 5.59967 110.553 2.41054 120.153 22.7294C120.153 22.7294 131.347 26.3565 141.189 15.9584C141.189 15.9584 124.737 -6.552 94.3379 5.59967Z" fill="white"/>
<path d="M77.043 91.8572C78.0657 91.7022 79.0996 91.6319 80.1339 91.6471C81.5458 91.6471 82.5513 91.9161 83.2268 92.4562C83.5725 92.7389 83.8494 93.0966 84.0365 93.5022C84.2236 93.9077 84.3161 94.3505 84.3069 94.797C84.3069 95.7887 83.975 96.6272 83.3761 97.1986C82.5906 97.9331 81.4398 98.2649 80.0887 98.2649C79.8262 98.2676 79.5638 98.2525 79.3032 98.2198V101.835H77.043V91.8572ZM79.3091 96.4485C79.5608 96.4961 79.817 96.5158 80.073 96.5074C81.2906 96.5074 82.0368 95.8927 82.0368 94.8579C82.0368 93.927 81.3907 93.3733 80.2498 93.3733C79.9324 93.3646 79.6152 93.3949 79.3052 93.4636L79.3091 96.4485Z" fill="white"/>
<path d="M95.7259 96.6743C95.7259 99.9891 93.7131 102 90.7596 102C87.7571 102 86.0015 99.7338 86.0015 96.853C86.0015 93.821 87.9377 91.5509 90.9246 91.5509C94.0293 91.5548 95.7259 93.8838 95.7259 96.6743ZM88.4169 96.8079C88.4169 98.7893 89.3477 100.186 90.8794 100.186C92.4111 100.186 93.3164 98.7147 93.3164 96.7489C93.3164 94.9325 92.4465 93.3733 90.8716 93.3733C89.3182 93.3733 88.4169 94.8421 88.4169 96.8079Z" fill="white"/>
<path d="M105.403 101.542C104.983 101.753 104.029 101.992 102.805 101.992C99.3098 101.992 97.5032 99.8026 97.5032 96.9217C97.5032 93.4695 99.9618 91.547 103.023 91.547C104.202 91.547 105.109 91.7885 105.515 91.9986L105.05 93.8131C104.441 93.5623 103.788 93.4354 103.129 93.44C101.313 93.44 99.9029 94.5338 99.9029 96.7784C99.9029 98.803 101.103 100.079 103.143 100.079C103.793 100.078 104.437 99.9663 105.05 99.7495L105.403 101.542Z" fill="white"/>
<path d="M109.439 98.6538L108.388 101.835H107.039L110.476 91.7217H112.047L115.507 101.835H114.111L113.028 98.6538H109.439ZM112.756 97.6326L111.764 94.7224C111.54 94.0625 111.391 93.4636 111.24 92.8764H111.21C111.061 93.4773 110.896 94.092 110.699 94.7086L109.718 97.6326H112.756Z" fill="white"/>
<path d="M118.504 92.8313H115.427V91.7237H122.914V92.8332H119.827V101.837H118.51L118.504 92.8313Z" fill="white"/>
<path d="M133.026 96.6743C133.026 100.156 130.913 102 128.33 102C125.66 102 123.784 99.9302 123.784 96.8687C123.784 93.658 125.779 91.5548 128.479 91.5548C131.242 91.5548 133.026 93.6718 133.026 96.6743ZM125.171 96.8393C125.171 98.9994 126.349 100.936 128.397 100.936C130.445 100.936 131.639 99.0289 131.639 96.7332C131.639 94.7243 130.589 92.6212 128.413 92.6212C126.237 92.6212 125.178 94.6163 125.178 96.8393H125.171Z" fill="white"/>
<path d="M143.995 97.393C143.92 95.9831 143.83 94.2864 143.846 93.0276H143.803C143.455 94.2059 143.037 95.4882 142.524 96.8687L140.739 101.778H139.757L138.122 96.961C137.64 95.5353 137.236 94.2294 136.943 93.0335H136.912C136.88 94.2923 136.806 95.989 136.715 97.505L136.446 101.841H135.199L135.906 91.7276H137.572L139.296 96.6193C139.718 97.8643 140.064 98.9758 140.317 100.026H140.364C140.617 99.0053 140.977 97.8958 141.428 96.6193L143.231 91.7237H144.896L145.525 101.837H144.25L143.995 97.393Z" fill="white"/>
<path d="M117.353 46.5025C116.268 47.6978 114.853 48.5448 113.288 48.9364C111.722 49.3281 110.075 49.2468 108.555 48.7029C107.035 48.1591 105.711 47.177 104.749 45.8807C103.787 44.5845 103.231 43.0323 103.151 41.4201C103.071 39.808 103.471 38.2083 104.299 36.8232C105.128 35.438 106.349 34.3295 107.807 33.6378C109.265 32.946 110.896 32.702 112.493 32.9366C114.09 33.1712 115.582 33.8738 116.779 34.9557C117.58 35.6734 118.23 36.5425 118.693 37.513C119.155 38.4834 119.421 39.5359 119.474 40.6096C119.527 41.6832 119.367 42.7569 119.003 43.7683C118.639 44.7798 118.078 45.7091 117.353 46.5025Z" fill="white"/>
<path d="M92.4253 41.2967C92.4253 41.2967 96.9654 38.9853 99.6008 28.7071C102.236 18.4288 112.031 13.6471 112.031 13.6471C112.031 13.6471 90.9898 -7.2295 75.054 25.5199C75.054 25.5199 88.0422 28.0689 92.4253 41.2967Z" fill="white"/>
<path d="M120.79 56.6905C120.79 56.6905 116.517 53.9137 106.299 56.7788C96.0818 59.6439 87.0427 53.5485 87.0427 53.5485C87.0427 53.5485 79.4881 82.2074 115.817 79.6251C115.817 79.6251 111.527 67.1023 120.79 56.6905Z" fill="white"/>
<path d="M88.9237 72.8933C88.9237 72.8933 78.0504 60.4471 90.8403 41.9683C90.8403 41.9683 88.3798 30.4607 74.4529 27.142C74.4529 27.142 63.1927 52.6451 88.9237 72.8933Z" fill="white"/>
<path d="M119.984 24.5518C119.984 24.5518 119.717 29.6438 127.309 37.0569C134.901 44.4701 134.145 55.3473 134.145 55.3473C134.145 55.3473 162.739 47.5551 142.33 17.388C142.33 17.388 133.634 27.3658 119.984 24.5518Z" fill="white"/>
<path d="M149.953 44.0459C149.953 44.0459 144.614 59.6813 122.215 57.8491C122.215 57.8491 113.482 65.7355 117.573 79.4503C117.573 79.4562 145.295 76.4497 149.953 44.0459Z" fill="white"/>
</svg>
