<svg width="229" height="104" viewBox="0 0 229 104" fill="none" xmlns="http://www.w3.org/2000/svg">
<g clip-path="url(#clip0_41_438)">
<path d="M183.813 40.3261C184.791 40.4134 185.778 40.3002 186.711 39.9932C187.645 39.6863 188.506 39.1922 189.243 38.541C189.98 37.8898 190.576 37.0951 190.996 36.2055C191.416 35.3158 191.651 34.3498 191.686 33.3663H187.498C187.065 35.0526 186.052 35.8957 183.813 35.8957C181.573 35.8957 180.417 35.0526 180.057 33.3663H175.869C175.912 34.3535 176.154 35.3217 176.581 36.2125C177.008 37.1032 177.611 37.8979 178.354 38.5485C179.096 39.1992 179.963 39.6922 180.901 39.9977C181.839 40.3032 182.83 40.415 183.813 40.3261Z" fill="white"/>
<path d="M97.8257 59.7739V42.5056H92.5505V67.6763H98.0421L108.658 50.1177V67.6763H113.929V42.5056H108.441L97.8257 59.7739Z" fill="white"/>
<path d="M75.9574 42.7164C74.0146 42.6282 72.0862 43.0885 70.3921 44.0448C68.6979 45.0012 67.3062 46.415 66.3756 48.1251C66.6371 42.4221 67.8015 39.0297 74.5843 38.1468L85.1304 36.7389L84.6974 31.1154L73.7181 32.5908C64.2549 33.8555 61.5825 40.9585 61.5825 52.134C61.5825 61.9056 66.1345 68.1614 74.5843 68.1614C82.8178 68.1614 87.2961 61.9732 87.2961 54.735C87.3972 53.1864 87.1782 51.6337 86.6529 50.1738C86.1275 48.7139 85.3071 47.3781 84.243 46.2502C83.1788 45.1222 81.8937 44.2262 80.4681 43.6181C79.0424 43.0101 77.5068 42.7031 75.9574 42.7164ZM74.5843 62.6135C69.8161 62.6135 67.0007 59.2409 67.0007 54.1782V51.5772C68.01 49.6086 70.6864 48.0615 74.5843 48.0615C78.703 48.0615 81.878 49.9585 81.878 54.7389C81.878 59.5193 79.3527 62.6135 74.5843 62.6135Z" fill="white"/>
<path d="M216.73 42.5056V51.9272H206.469V42.5056H201.198V67.6763H206.469V57.1292H216.73V67.6763H222V42.5056H216.73Z" fill="white"/>
<path d="M178.468 59.7739V42.5056H173.193V67.6763H178.685L189.3 50.1177V67.6763H194.575V42.5056H189.084L178.468 59.7739Z" fill="white"/>
<path d="M123.416 57.9047C122.84 60.7164 122.043 61.9135 120.454 61.9135C119.798 61.938 119.141 61.867 118.505 61.7027V67.537C119.319 67.9083 120.21 68.0775 121.104 68.0302C122.338 68.0574 123.55 67.6906 124.563 66.9828C125.576 66.2751 126.338 65.263 126.738 64.0929C127.397 62.1122 127.81 60.0579 127.968 57.9763C128.321 54.6141 128.49 51.2353 128.475 47.8547H135.482V67.6802H140.753V42.5135H124.07C124.185 47.6527 123.967 52.7939 123.416 57.9047Z" fill="white"/>
<path d="M165.63 60.8557L165.703 50.8733C165.777 44.5459 161.801 41.9449 156.023 41.9449C154.829 41.8515 153.628 41.9962 152.489 42.3706C151.351 42.7449 150.298 43.3416 149.392 44.126C148.485 44.9104 147.743 45.867 147.208 46.9405C146.672 48.014 146.355 49.1831 146.274 50.3802H151.328C151.619 48.0616 153.494 47.286 156.023 47.286C158.614 47.286 160.35 48.0616 160.612 50.6506L154.148 53.1919C149.743 54.9498 146.421 56.9184 146.421 61.0665C146.421 65.3537 148.877 68.0979 153.788 68.0979C155.313 68.1346 156.815 67.7193 158.106 66.9043C159.396 66.0892 160.417 64.9105 161.041 63.5163C161.298 66.5468 163.362 67.8871 166.933 67.8871H168.379V63.0351H167.946C166.279 63.0351 165.63 62.4028 165.63 60.8557ZM155.733 62.8243C153.277 62.8243 151.471 62.192 151.471 60.0126C151.471 58.1155 152.987 57.2724 155.59 56.2145L160.624 54.1782L160.571 60.9949C159.942 61.6282 159.185 62.1191 158.35 62.4347C157.516 62.7502 156.623 62.8831 155.733 62.8243Z" fill="white"/>
<path d="M37.1353 66.7695C29.9806 70.7863 22.2213 71.5061 17.2649 69.1C20.5046 70.9736 24.1746 71.9726 27.9156 71.9991C31.6567 72.0256 35.3404 71.0787 38.6063 69.2511C41.8275 67.4744 44.5082 64.8573 46.3635 61.6775C48.2189 58.4977 49.1798 54.8741 49.1441 51.1914C48.8091 56.5684 44.2859 62.7487 37.1353 66.7695Z" fill="white"/>
<path d="M30.7408 32.5034C32.1913 34.9453 28.6855 39.5586 22.9078 42.7999C17.1302 46.0452 11.2749 46.6934 9.82435 44.2475C9.75983 44.1281 9.70648 44.003 9.66499 43.8737C9.53185 43.1379 9.56672 42.3814 9.76698 41.661C9.96723 40.9405 10.3277 40.2748 10.8213 39.7137C10.9971 39.4711 11.1768 39.2325 11.3607 38.9979C13.0544 36.8578 15.1523 35.0726 17.5347 33.7442C19.9332 32.3943 22.5692 31.5207 25.2982 31.1711C25.6087 31.1273 25.9111 31.0955 26.2053 31.0756C26.9555 30.9407 27.726 30.9692 28.4642 31.1593C29.2024 31.3494 29.8911 31.6966 30.4833 32.1772C30.5785 32.2782 30.6646 32.3873 30.7408 32.5034Z" fill="white"/>
<path d="M39.6989 35.1442C42.2321 39.4115 37.1206 46.8924 28.2866 51.8557C19.4527 56.819 10.2345 57.3837 7.70525 53.1163C7.2867 52.3997 7.04962 51.5914 7.01472 50.7619C6.9007 53.694 7.43945 56.6147 8.59192 59.3125C8.76763 59.7261 8.95968 60.1358 9.16397 60.5414L9.19257 60.5931C9.9859 61.8922 11.1287 62.9412 12.49 63.6197C17.4464 66.2007 25.8268 65.3139 33.6639 60.9113C41.4967 56.5087 46.4776 49.8949 46.6615 44.4305C46.7358 42.9341 46.3769 41.4481 45.6278 40.1512C45.3418 39.7336 45.0434 39.324 44.7289 38.9342C42.8967 36.6353 40.5989 34.7513 37.987 33.4061C38.6859 33.8429 39.2723 34.4384 39.6989 35.1442Z" fill="white"/>
</g>
<defs>
<clipPath id="clip0_41_438">
<rect width="215" height="41" fill="white" transform="translate(7 31)"/>
</clipPath>
</defs>
</svg>
