<svg width="221" height="104" viewBox="0 0 221 104" fill="none" xmlns="http://www.w3.org/2000/svg">
<mask id="mask0_41_304" style="mask-type:luminance" maskUnits="userSpaceOnUse" x="8" y="22" width="203" height="60">
<path d="M210.692 22H8V81.4767H210.692V22Z" fill="white"/>
</mask>
<g mask="url(#mask0_41_304)">
<path d="M158.02 33.1875L147.463 60.845H142.368L133.876 35.0919L125.284 60.845H120.037L109.53 33.1875H113.56L122.736 58.5244L131.38 33.1875H136.424L144.915 58.3101L154.142 33.1875H158.007H158.02Z" fill="white"/>
<path d="M189.324 48.0179H164.293C164.712 55.1435 169.224 58.8892 175.751 58.8892C180.68 58.8892 184.077 56.6696 185.509 53.6176L188.856 53.8319C187.208 58.4731 182.709 61.4872 175.751 61.4872C166.84 61.4872 160.796 56.6822 160.796 47.0216C160.796 37.3611 166.942 32.556 175.383 32.556C183.824 32.556 189.336 37.4116 189.336 47.4882V48.0179H189.324ZM164.344 45.5966H185.826C185.662 39.152 181.53 35.1414 175.383 35.1414C169.237 35.1414 164.876 38.7358 164.358 45.5966H164.344Z" fill="white"/>
<path d="M199.02 22V60.844H195.522V22H199.02Z" fill="white"/>
<path d="M210.692 22V60.844H207.195V22H210.692Z" fill="white"/>
<path d="M115.119 72.5981L118.833 81.0859C118.833 81.0859 118.833 81.1868 118.833 81.2372C118.833 81.275 118.795 81.3002 118.731 81.3002H117.958C117.844 81.3002 117.755 81.2499 117.717 81.1363L116.982 79.4086H111.457L110.709 81.1363C110.671 81.2499 110.595 81.3002 110.468 81.3002H109.682C109.682 81.3002 109.593 81.275 109.568 81.2246C109.543 81.1868 109.543 81.1363 109.568 81.0732L113.332 72.5981C113.383 72.4847 113.472 72.4216 113.573 72.4216H114.853C114.98 72.4342 115.068 72.4973 115.119 72.5981ZM114.372 73.3423H114.055L111.862 78.45H116.564L114.372 73.3423Z" fill="white"/>
<path d="M127.92 72.6226V81.0852C127.92 81.2239 127.843 81.2995 127.704 81.2995H127.07C126.918 81.2995 126.842 81.2239 126.842 81.0852V73.392H121.481V81.0852C121.481 81.2239 121.405 81.2995 121.266 81.2995H120.632C120.48 81.2995 120.404 81.2239 120.404 81.0852V72.6226C120.404 72.484 120.48 72.4083 120.632 72.4083H127.704C127.843 72.4083 127.92 72.484 127.92 72.6226Z" fill="white"/>
<path d="M135.08 72.5981L138.794 81.0859C138.794 81.0859 138.794 81.1868 138.794 81.2372C138.794 81.275 138.756 81.3002 138.692 81.3002H137.919C137.805 81.3002 137.717 81.2499 137.679 81.1363L136.943 79.4086H131.418L130.67 81.1363C130.632 81.2499 130.556 81.3002 130.429 81.3002H129.643C129.643 81.3002 129.555 81.275 129.529 81.2246C129.504 81.1868 129.504 81.1363 129.529 81.0732L133.293 72.5981C133.344 72.4847 133.433 72.4216 133.534 72.4216H134.814C134.941 72.4342 135.03 72.4973 135.08 72.5981ZM134.333 73.3423H134.016L131.823 78.45H136.525L134.333 73.3423Z" fill="white"/>
<path d="M146.005 72.699C146.423 72.863 146.766 73.0775 147.057 73.3549C147.349 73.6324 147.577 73.9603 147.741 74.3386C147.906 74.717 147.982 75.1205 147.982 75.5619C147.982 76.0034 147.906 76.4196 147.741 76.7853C147.577 77.1636 147.349 77.4915 147.057 77.769C146.778 78.0464 146.423 78.2609 146.005 78.4249C145.587 78.5888 145.143 78.6644 144.675 78.6644H141.443V81.111C141.443 81.2499 141.367 81.3255 141.227 81.3255H140.568C140.429 81.3255 140.353 81.2499 140.353 81.111V72.6487C140.353 72.51 140.429 72.4342 140.568 72.4342H144.662V72.472C145.131 72.472 145.574 72.5603 145.993 72.7117L146.005 72.699ZM146.335 77.0627C146.715 76.6465 146.905 76.1421 146.905 75.5368C146.905 74.9313 146.715 74.4395 146.335 74.0234C145.955 73.6071 145.397 73.4054 144.675 73.4054H141.443V77.6807H144.675C145.41 77.6807 145.955 77.4789 146.335 77.0754V77.0627Z" fill="white"/>
<path d="M156.93 72.6486V73.1658C156.93 73.317 156.854 73.3928 156.702 73.3928H153.495V81.0732C153.495 81.2246 153.42 81.3002 153.268 81.3002H152.646C152.494 81.3002 152.418 81.2246 152.418 81.0732V73.3928H149.211C149.059 73.3928 148.984 73.317 148.984 73.1658V72.6486C148.984 72.4973 149.059 72.4216 149.211 72.4216H156.715C156.867 72.4216 156.942 72.4973 156.942 72.6486H156.93Z" fill="white"/>
<path d="M158.882 76.1671H161.099C161.251 76.1671 161.328 76.2429 161.328 76.3816V76.9365C161.328 77.0752 161.251 77.1508 161.099 77.1508H158.882C158.742 77.1508 158.667 77.0752 158.667 76.9365V76.3816C158.667 76.2429 158.742 76.1671 158.882 76.1671Z" fill="white"/>
<path d="M173.152 75.1078C172.924 74.5529 172.594 74.0736 172.189 73.6575C171.797 73.2665 171.315 72.9512 170.732 72.7116C170.174 72.4846 169.565 72.371 168.92 72.371C168.273 72.371 167.677 72.4846 167.12 72.7116C166.562 72.9386 166.08 73.2538 165.663 73.67C165.243 74.0863 164.928 74.5654 164.699 75.1204C164.471 75.6627 164.356 76.268 164.356 76.9239C164.356 77.5671 164.471 78.1724 164.699 78.7146C164.928 79.2696 165.243 79.7489 165.663 80.1651C166.08 80.5812 166.562 80.8965 167.12 81.1236C167.677 81.3506 168.273 81.464 168.92 81.464C169.565 81.464 170.187 81.3506 170.732 81.1236C171.315 80.884 171.797 80.5686 172.189 80.1777C172.62 79.7489 172.937 79.2696 173.152 78.7399C173.381 78.185 173.494 77.5797 173.494 76.9113C173.494 76.2428 173.381 75.6375 173.152 75.0826V75.1078ZM172.469 76.886C172.469 77.3905 172.392 77.8698 172.227 78.2986C172.075 78.7146 171.834 79.0931 171.505 79.4335C171.187 79.7614 170.82 80.0137 170.39 80.1902C169.959 80.3794 169.477 80.4678 168.97 80.4678C168.463 80.4678 167.982 80.3794 167.55 80.1902C167.107 80.0012 166.727 79.7614 166.435 79.4462C166.106 79.1056 165.865 78.7273 165.713 78.3111C165.548 77.8823 165.473 77.4032 165.473 76.8986C165.473 76.8986 165.473 76.886 165.473 76.8733C165.473 76.8733 165.473 76.8608 165.473 76.8482C165.473 76.3437 165.548 75.8645 165.713 75.4357C165.865 75.0195 166.106 74.6412 166.435 74.3006C166.753 73.9727 167.12 73.7204 167.55 73.5439C167.982 73.3547 168.463 73.2665 168.97 73.2665C169.477 73.2665 169.959 73.3547 170.39 73.5439C170.834 73.7331 171.214 73.9727 171.505 74.288C171.834 74.6285 172.075 75.0069 172.227 75.423C172.392 75.8518 172.469 76.3311 172.469 76.8355C172.469 76.8355 172.469 76.8482 172.469 76.8608C172.469 76.8608 172.469 76.8733 172.469 76.886Z" fill="white"/>
<path d="M182.519 72.6486V73.1658C182.519 73.317 182.442 73.3928 182.29 73.3928H179.083V81.0732C179.083 81.2246 179.008 81.3002 178.856 81.3002H178.235C178.083 81.3002 178.006 81.2246 178.006 81.0732V73.3928H174.801C174.648 73.3928 174.572 73.317 174.572 73.1658V72.6486C174.572 72.4973 174.648 72.4216 174.801 72.4216H182.303C182.455 72.4216 182.532 72.4973 182.532 72.6486H182.519Z" fill="white"/>
<path d="M190.618 72.6226V73.1776C190.618 73.3163 190.541 73.392 190.401 73.392H184.914V76.1287H190.085C190.224 76.1287 190.301 76.2044 190.301 76.3432V76.898C190.301 77.0368 190.224 77.1125 190.085 77.1125H184.914V80.3285H190.566C190.706 80.3285 190.781 80.3915 190.781 80.5177V81.0852C190.781 81.2239 190.706 81.2995 190.566 81.2995H184.052C183.912 81.2995 183.837 81.2239 183.837 81.0852V72.6226C183.837 72.484 183.912 72.4083 184.052 72.4083H190.401C190.541 72.4083 190.618 72.484 190.618 72.6226Z" fill="white"/>
<path d="M203.266 72.4851H203.936C204.064 72.4851 204.128 72.5609 204.128 72.6996V75.1084H207.372C207.84 75.1084 208.285 75.184 208.702 75.3479C209.12 75.5119 209.463 75.7264 209.755 76.0038C210.045 76.2813 210.274 76.6092 210.439 76.9875C210.604 77.3659 210.68 77.7694 210.68 78.2109C210.68 78.6523 210.604 79.0685 210.439 79.4342C210.274 79.8125 210.045 80.1404 209.755 80.4179C209.475 80.6953 209.12 80.9098 208.702 81.0738C208.285 81.2377 207.84 81.3133 207.372 81.3133H203.266C203.126 81.3133 203.051 81.2377 203.051 81.0989V72.6996C203.051 72.5609 203.126 72.4851 203.266 72.4851ZM208.31 80.1657C208.588 80.0522 208.817 79.9008 209.02 79.7116C209.222 79.5099 209.362 79.2828 209.463 79.0307C209.565 78.7657 209.615 78.4883 209.615 78.1857C209.615 77.883 209.565 77.5929 209.463 77.3406C209.362 77.0758 209.222 76.8488 209.02 76.6596C208.83 76.4705 208.588 76.3191 208.31 76.2057C208.043 76.0921 207.727 76.0417 207.36 76.0417H204.128V80.3422H207.36C207.727 80.3422 208.043 80.2918 208.31 80.1782V80.1657Z" fill="white"/>
<path d="M197.765 72.5981C197.727 72.4847 197.637 72.4342 197.499 72.4342L196.219 72.4216C196.105 72.4216 196.029 72.4847 195.978 72.5981L192.213 81.0732C192.213 81.0732 192.188 81.1741 192.213 81.2246C192.238 81.275 192.278 81.3002 192.328 81.3002H193.113C193.24 81.3002 193.328 81.2499 193.355 81.1363L193.861 79.976L194.508 78.45L194.99 77.315L196.7 73.3423H197.017L198.817 77.542L199.629 79.4086L199.869 79.976L200.364 81.1363C200.401 81.2499 200.489 81.3002 200.604 81.3002H201.377C201.377 81.3002 201.466 81.275 201.479 81.2372C201.479 81.1993 201.479 81.149 201.479 81.0859L197.765 72.5981Z" fill="white"/>
<path d="M95.0564 31.9885H8C17.6194 48.5351 26.998 64.6529 36.6809 81.3002C41.6997 72.6486 46.6298 64.1736 51.5346 55.7111C56.4647 64.1861 61.3948 72.6739 66.4136 81.3002C76.1218 64.5771 85.475 48.4845 95.0437 31.9885H95.0564Z" fill="white"/>
</g>
</svg>
