<svg width="221" height="104" viewBox="0 0 221 104" fill="none" xmlns="http://www.w3.org/2000/svg">
<g clip-path="url(#clip0_41_274)">
<path d="M128.476 26.2339L128.416 25.9687C128.269 25.2031 127.886 24.8203 127.209 24.8203H116.499C115.939 24.7905 115.704 25.0854 115.85 25.7036C115.879 25.9405 116.057 26.2007 116.346 26.5007L117.641 27.944C117.757 28.1279 117.907 28.2881 118.083 28.4163V53.4661L118.113 53.7312C118.26 54.4686 118.672 54.8514 119.319 54.8514H127.209L127.563 54.7934C127.974 54.6741 128.269 54.2963 128.416 53.6715L128.476 53.4081L128.534 41.7068H128.593C128.67 41.7076 128.746 41.7237 128.817 41.7542C128.888 41.7846 128.952 41.8288 129.005 41.8841L129.035 41.914L129.212 42.2073L134.776 53.9731C135.099 54.5333 135.541 54.8282 136.071 54.8581H144.078C144.19 54.8676 144.302 54.8543 144.409 54.819C144.515 54.7836 144.613 54.727 144.697 54.6526C144.904 54.4644 145.048 54.2175 145.109 53.945C145.137 53.6957 145.107 53.4434 145.022 53.2075L138.342 39.9088L145.03 26.441C145.115 26.2051 145.145 25.9529 145.118 25.7036C144.97 25.0854 144.646 24.7905 144.086 24.8203H136.076C135.546 24.8203 135.104 25.1153 134.781 25.6737L129.217 37.4628C129.07 37.7942 128.863 37.9351 128.598 37.9351H128.539L128.476 26.2339Z" fill="white"/>
<path d="M107.048 25.793C106.789 25.1434 106.458 24.8501 106.016 24.9379H94.4463C93.7692 24.9379 93.4746 25.3208 93.6186 26.0864C93.7642 26.5791 93.9417 27.0618 94.15 27.5314C94.342 27.8959 94.4898 28.2819 94.5903 28.6815C94.648 28.988 94.6176 29.3047 94.5026 29.5946C89.1175 45.5431 86.4687 53.6434 86.4985 53.9085C86.6459 54.5565 87.0283 54.8813 87.5878 54.8813H91.1503C91.7976 54.8813 92.2098 54.5266 92.4151 53.8207L93.6219 50.3125C93.7692 49.8153 93.9762 49.575 94.299 49.575H102.603L104.28 53.9085C104.545 54.5559 105.016 54.8802 105.693 54.8813H116.704C117.381 54.8813 117.646 54.4968 117.498 53.7014L107.048 25.793ZM97.8615 37.08C100.014 42.9149 101.101 45.8331 101.071 45.8331H95.1234L97.8615 37.08Z" fill="white"/>
<path d="M102.749 60.4808C102.723 60.4066 102.675 60.3418 102.613 60.2945C102.55 60.2473 102.474 60.2199 102.396 60.2157L98.1266 60.2737C97.8617 60.2737 97.774 60.3914 97.8319 60.6283C97.9213 60.8338 97.9511 60.9813 97.9793 61.0111L98.1266 61.4238C98.1414 61.456 98.1491 61.491 98.1491 61.5265C98.1491 61.562 98.1414 61.597 98.1266 61.6293C96.0954 66.551 95.0955 69.0865 95.1236 69.1743C95.1534 69.3517 95.271 69.4395 95.4779 69.4395H96.8022C96.9092 69.4427 97.0144 69.4126 97.1034 69.3532C97.1924 69.2938 97.2607 69.2081 97.2989 69.1081L97.7111 68.0176C97.7387 67.9699 97.777 67.9292 97.823 67.8987C97.8689 67.8683 97.9213 67.8488 97.9759 67.842L101.009 67.6647L101.686 69.1677C101.73 69.2528 101.799 69.3232 101.882 69.3702C101.966 69.4173 102.062 69.4391 102.158 69.4329H106.25C106.515 69.4329 106.602 69.3152 106.545 69.1014L102.747 60.4676L102.749 60.4808ZM100.542 66.6687H98.3335L99.3632 63.9576L100.542 66.6687Z" fill="white"/>
<path d="M106.693 60.746L107.165 61.1885L107.253 61.3061V68.997L107.283 69.1163C107.312 69.3218 107.46 69.4395 107.725 69.4395H110.845C110.938 69.446 111.03 69.4159 111.102 69.3555C111.173 69.2952 111.218 69.2094 111.228 69.1163V67.0863C111.17 67.0283 111.228 67.0283 111.375 67.0581H114.79C115.3 67.0282 115.786 66.8314 116.174 66.498C116.351 66.3589 116.492 66.1789 116.584 65.9734C116.676 65.7679 116.717 65.543 116.704 65.3181L116.734 62.0767L116.704 61.6342C116.567 61.2267 116.298 60.8767 115.939 60.6399C115.568 60.3771 115.127 60.2332 114.673 60.2273H106.726C106.549 60.2273 106.491 60.3151 106.549 60.4924L106.693 60.746ZM111.198 61.3061C111.228 61.3343 111.729 61.3343 112.759 61.3641L112.789 65.9329L111.228 65.8153L111.198 61.3061Z" fill="white"/>
<path d="M117.263 60.4808L117.411 60.7459L118 61.3061V69.1146C118.024 69.2182 118.085 69.3093 118.172 69.3705C118.258 69.4316 118.365 69.4586 118.47 69.4461H125.243C125.345 69.4529 125.447 69.4381 125.543 69.4027C125.639 69.3673 125.727 69.3121 125.8 69.2406L126.332 68.7683C126.449 68.6804 126.507 68.5926 126.479 68.5628C126.45 68.4865 126.397 68.4219 126.327 68.3791C126.258 68.3363 126.176 68.3175 126.095 68.3258H121.975L122.033 60.6631L121.975 60.5752C121.958 60.4718 121.904 60.3782 121.822 60.3128C121.74 60.2475 121.637 60.2152 121.533 60.2223H117.44C117.263 60.2156 117.204 60.3035 117.263 60.4808Z" fill="white"/>
<path d="M129.687 60.2736C129.423 60.2736 129.333 60.3913 129.393 60.6283C129.481 60.8338 129.51 60.9813 129.54 61.0111L129.717 61.4237L129.687 61.6292C127.656 66.5808 126.625 69.0865 126.655 69.1743C126.683 69.2586 126.74 69.3307 126.815 69.3788C126.889 69.4269 126.978 69.4483 127.067 69.4394H128.363C128.47 69.4427 128.575 69.4125 128.664 69.3531C128.753 69.2937 128.822 69.208 128.86 69.108L129.272 68.0176C129.305 67.9682 129.348 67.9268 129.399 67.8964C129.45 67.8661 129.508 67.8474 129.567 67.8419L132.57 67.6646L133.247 69.1677C133.306 69.3151 133.452 69.403 133.687 69.4328H137.811C138.044 69.4328 138.142 69.3151 138.104 69.1014L134.306 60.4675C134.218 60.2902 134.129 60.2024 133.975 60.2024L129.687 60.2736ZM129.893 66.6687L130.924 63.9575L132.131 66.6687H129.893Z" fill="white"/>
<path d="M138.225 60.6565L138.756 61.2763V69.0269L138.784 69.1147C138.791 69.2093 138.836 69.2971 138.907 69.3592C138.979 69.4213 139.072 69.4525 139.166 69.4461H141.699C141.847 69.4163 141.934 69.2986 141.964 69.0931L141.994 69.0037L142.022 65.4093C142.052 65.3794 142.112 65.3794 142.141 65.4673L142.199 65.5269L143.936 69.181C143.971 69.2609 144.029 69.3287 144.103 69.3759C144.176 69.423 144.262 69.4474 144.35 69.4461H146.821L147.028 69.4163L147.116 69.181C147.146 69.1054 147.146 69.0213 147.116 68.9457L145.03 64.8425L147.116 60.6565C147.131 60.6243 147.138 60.5893 147.138 60.5538C147.138 60.5183 147.131 60.4832 147.116 60.451C147.086 60.2439 146.998 60.1561 146.821 60.1561H144.35C144.262 60.1547 144.176 60.1792 144.103 60.2263C144.029 60.2735 143.971 60.3412 143.936 60.4212L142.199 64.0471C142.169 64.1647 142.112 64.2227 142.022 64.2227L141.994 60.5985L141.964 60.509C141.934 60.2737 141.817 60.1561 141.612 60.1561H138.254C138.107 60.1561 138.049 60.2439 138.077 60.451L138.225 60.6565Z" fill="white"/>
<path d="M185.537 24.7606C184.858 24.7606 184.448 25.1451 184.3 25.8809C179.707 44.4179 177.433 53.7605 177.477 53.9085C177.622 54.5863 177.973 54.9111 178.596 54.9111H182.127C182.746 54.9111 183.12 54.5797 183.306 53.9665L188.782 32.188L194.463 53.7908C194.728 54.5266 195.228 54.9111 195.935 54.9111L206.063 54.8813C206.74 54.8514 207.005 54.4686 206.857 53.6715L197.996 25.8809C197.761 25.1451 197.289 24.7606 196.582 24.7606H185.537Z" fill="white"/>
<path d="M166.283 25.7632C166.018 25.0854 165.634 24.8203 165.134 24.9081H153.652C152.974 24.8783 152.68 25.2628 152.824 26.0582C152.972 26.543 153.15 27.018 153.359 27.48C153.622 28.0402 153.769 28.4246 153.799 28.6599C153.852 28.9548 153.831 29.2582 153.739 29.5432C148.352 45.5432 145.704 53.6732 145.732 53.9085C145.851 54.5266 146.204 54.8515 146.821 54.8515H150.356C151.031 54.8515 151.443 54.4968 151.62 53.8207L152.827 50.2826C152.974 49.7855 153.181 49.5469 153.506 49.5469H161.808L163.485 53.9085C163.59 54.1959 163.783 54.4423 164.037 54.6119C164.292 54.7814 164.593 54.8654 164.899 54.8515H175.939C176.616 54.8515 176.881 54.4686 176.733 53.6732L166.283 25.7632ZM154.363 45.8332L157.072 37.0502L160.282 45.8332H154.363Z" fill="white"/>
<path d="M150.591 61.0111L150.738 61.4237C150.752 61.4562 150.759 61.4911 150.759 61.5265C150.759 61.5618 150.752 61.5968 150.738 61.6292C148.705 66.5808 147.675 69.0865 147.705 69.1743C147.733 69.2589 147.79 69.3314 147.865 69.3796C147.94 69.4278 148.029 69.4489 148.117 69.4394H149.412C149.515 69.439 149.615 69.407 149.7 69.3477C149.784 69.2885 149.848 69.2048 149.884 69.108L150.326 68.0176C150.353 67.9696 150.391 67.9287 150.437 67.8982C150.483 67.8677 150.536 67.8484 150.591 67.8419L153.594 67.6646L154.271 69.1677C154.315 69.2525 154.383 69.3227 154.467 69.3697C154.55 69.4168 154.645 69.4387 154.741 69.4328H158.863C159.098 69.4328 159.194 69.3151 159.128 69.1014L155.36 60.4675C155.271 60.2902 155.183 60.2024 155.029 60.2024L150.702 60.2604C150.466 60.2604 150.37 60.3781 150.437 60.615C150.524 60.8205 150.554 60.968 150.584 60.9978M151.938 63.9443L153.115 66.6554H150.943L151.938 63.9443Z" fill="white"/>
<path d="M159.775 61.1884L159.835 61.3061V68.997L159.864 69.1163C159.89 69.2183 159.952 69.3075 160.038 69.367C160.125 69.4265 160.23 69.4523 160.335 69.4394H167.135C167.233 69.4434 167.331 69.4271 167.422 69.3918C167.514 69.3565 167.597 69.3027 167.667 69.2339L168.196 68.7616C168.314 68.6738 168.372 68.5843 168.344 68.5562C168.314 68.4087 168.166 68.3192 167.96 68.3192H163.867V60.5686C163.852 60.4651 163.798 60.3713 163.716 60.3059C163.635 60.2404 163.531 60.2082 163.427 60.2156H159.335C159.187 60.2156 159.098 60.3035 159.128 60.4808L159.275 60.7459L159.54 60.9813C159.631 61.0347 159.711 61.105 159.775 61.1884Z" fill="white"/>
<path d="M180.622 60.6233C180.251 60.3605 179.81 60.2166 179.356 60.2107H173.85C173.339 60.2119 172.848 60.4006 172.467 60.741C172.298 60.8842 172.16 61.0594 172.058 61.2565C171.957 61.4535 171.896 61.6686 171.878 61.8894V67.5486L171.936 68.0209C171.982 68.2339 172.071 68.4352 172.198 68.6125C172.325 68.7897 172.486 68.9392 172.673 69.0517C173.035 69.3056 173.467 69.4395 173.909 69.4345H179.443C179.925 69.4607 180.398 69.3025 180.768 68.992C181.068 68.7151 181.256 68.3379 181.297 67.9314V65.8434C181.268 65.6976 181.15 65.6379 180.943 65.6379H177.798C177.742 65.6316 177.686 65.6379 177.633 65.6564C177.58 65.6749 177.532 65.7051 177.492 65.7447C177.453 65.7844 177.422 65.8325 177.404 65.8854C177.386 65.9384 177.379 65.9948 177.386 66.0505C177.356 67.3763 177.328 68.0839 177.356 68.2049H175.914V61.4271L177.356 61.3972L177.415 63.6659C177.445 63.9029 177.593 64.0205 177.857 64.0205H181.003C181.238 64.0205 181.355 63.9327 181.355 63.7554L181.327 61.6325C181.228 61.2191 180.976 60.8585 180.622 60.6233Z" fill="white"/>
<path d="M183.152 60.746C182.977 60.882 182.835 61.0565 182.738 61.2559C182.641 61.4553 182.591 61.6743 182.592 61.8961V67.5537L182.652 68.0243C182.758 68.4409 183.008 68.8066 183.357 69.0567C183.719 69.3102 184.151 69.444 184.593 69.4395H190.099C190.615 69.4515 191.118 69.2748 191.513 68.9424C191.678 68.7869 191.81 68.5999 191.901 68.3923C191.992 68.1847 192.04 67.9609 192.043 67.7343L192.073 61.8397L192.013 61.6326C191.91 61.2241 191.658 60.8692 191.306 60.6383C190.927 60.3722 190.475 60.2287 190.012 60.2273H184.506C184.003 60.2246 183.519 60.4143 183.152 60.7576M188.068 61.3757L188.098 61.4354V68.243L187.951 68.3309H186.567L186.597 61.3708L188.068 61.3757Z" fill="white"/>
<path d="M219.334 31.6229C219.366 31.283 219.327 30.9403 219.221 30.616C219.115 30.2916 218.943 29.9925 218.717 29.7371C218.275 29.2068 217.863 28.882 217.48 28.7942H211.797V25.3506C211.797 25.0191 211.65 24.8534 211.327 24.7606H204.762C204.431 24.8501 204.29 25.0258 204.29 25.3506V28.3865C204.29 28.6798 204.437 28.8571 204.762 28.9466H206.498V39.3205C206.518 39.4595 206.589 39.5858 206.699 39.6734C206.809 39.7609 206.948 39.8031 207.087 39.7911H217.273C217.632 39.6993 217.969 39.5396 218.267 39.3205C218.778 38.8675 219.12 38.2539 219.237 37.5805L219.296 36.9623L219.334 31.6229ZM212.357 30.5922H213.328C213.35 30.5774 213.376 30.5694 213.402 30.5694C213.428 30.5694 213.454 30.5774 213.476 30.5922C213.58 30.6117 213.675 30.662 213.75 30.7364C213.825 30.8109 213.876 30.9061 213.896 31.0098V37.6103C213.875 37.7117 213.825 37.8047 213.752 37.878C213.678 37.9513 213.585 38.0016 213.484 38.0229L213.337 38.0527H212.365L212.218 38.0229C212.111 38.0077 212.011 37.9599 211.932 37.8862C211.853 37.8124 211.798 37.7161 211.776 37.6103V31.0098C211.803 30.9062 211.859 30.8125 211.937 30.7395C212.015 30.6665 212.113 30.6171 212.218 30.5972C212.239 30.5823 212.265 30.5744 212.291 30.5744C212.318 30.5744 212.343 30.5823 212.365 30.5972" fill="white"/>
<path d="M193.574 61.1885L193.662 61.3061V68.9971L193.692 69.1164C193.717 69.2184 193.779 69.3076 193.866 69.3671C193.952 69.4266 194.058 69.4524 194.162 69.4395H195.458C195.723 69.4395 195.84 69.3219 195.87 69.0567L195.84 65.6082L197.282 69.0567C197.314 69.177 197.389 69.2817 197.491 69.3519C197.594 69.4222 197.718 69.4533 197.842 69.4395H201.287C201.387 69.4473 201.486 69.4191 201.568 69.3598C201.649 69.3005 201.706 69.2142 201.729 69.1164L202.818 64.9005V68.9971L202.848 69.1164C202.878 69.3219 203.025 69.4395 203.288 69.4395H206.434C206.698 69.4395 206.818 69.2639 206.788 68.9424L206.818 60.6565L206.788 60.5687C206.772 60.4652 206.717 60.3716 206.635 60.3063C206.554 60.241 206.45 60.2087 206.346 60.2157H202.313C202.047 60.2157 201.9 60.3334 201.871 60.5687L200.28 66.7284L197.754 60.6234C197.726 60.5044 197.659 60.3986 197.562 60.3238C197.466 60.2489 197.346 60.2096 197.224 60.2124H193.132C192.955 60.2124 192.895 60.3002 192.955 60.4776L193.102 60.7427L193.574 61.1885Z" fill="white"/>
<path d="M171.287 68.3788C171.289 68.2238 171.259 68.07 171.198 67.9273C171.137 67.7847 171.047 67.6562 170.934 67.5503C170.831 67.444 170.708 67.3599 170.571 67.3029C170.434 67.2459 170.288 67.2173 170.14 67.2188C169.987 67.213 169.835 67.2388 169.693 67.2945C169.551 67.3503 169.422 67.4348 169.314 67.5427C169.207 67.6507 169.122 67.7798 169.066 67.922C169.011 68.0642 168.985 68.2163 168.991 68.3689C168.989 68.5171 169.017 68.6641 169.074 68.8009C169.131 68.9376 169.215 69.0613 169.322 69.1643C169.552 69.3664 169.844 69.4834 170.15 69.4958C170.298 69.4973 170.444 69.4687 170.581 69.4117C170.717 69.3547 170.841 69.2706 170.944 69.1643C171.059 69.0666 171.15 68.9443 171.211 68.8067C171.272 68.669 171.301 68.5194 171.297 68.3689" fill="white"/>
<path d="M28.2636 25.7036C28.0584 25.0854 27.6462 24.7606 27.0866 24.7905H6.71311C6.21419 24.7863 5.71961 24.8834 5.25925 25.076C4.79888 25.2685 4.38228 25.5525 4.03461 25.9107C3.67523 26.2561 3.39251 26.6733 3.20484 27.1353C3.01716 27.5972 2.92874 28.0936 2.94533 28.592V41.2643C2.9291 41.7583 3.0178 42.2501 3.20558 42.7072C3.39336 43.1642 3.67593 43.5762 4.03461 43.9158C4.73465 44.6254 5.68711 45.0282 6.68331 45.0361V45.0659L7.74445 45.0957L3.29794 53.761C2.85759 54.4918 2.97512 54.8514 3.65551 54.8514H12.1893C12.8366 54.8514 13.3382 54.4968 13.7206 53.7909L16.7534 47.1887C16.79 47.0926 16.8555 47.0102 16.9409 46.9529C17.0263 46.8956 17.1274 46.8662 17.2301 46.8689C17.4073 46.8689 17.495 46.9584 17.5248 47.1639V53.7063C17.495 54.4438 17.8559 54.8266 18.5263 54.8564H23.5539L28.2636 42.9248V25.7036ZM14.4573 28.239H16.6938C17.1656 28.297 17.4884 28.592 17.6655 29.0925V41.1169C17.4884 41.614 17.1689 41.914 16.6938 41.972H14.4573C13.9855 41.914 13.6626 41.619 13.4855 41.1169V29.0925C13.6626 28.5953 13.9821 28.297 14.4573 28.239Z" fill="white"/>
<path d="M31.2087 24.7905C30.5896 24.7606 30.2071 25.0854 30.0598 25.7036V42.7724L34.8291 54.8846H39.3336C39.8931 54.8548 40.2474 54.5532 40.4229 53.9417V28.9715C40.6 28.4743 40.9195 28.176 41.3946 28.118H43.9258C44.3976 28.176 44.7221 28.471 44.8992 28.9715H44.9273V53.9383C45.1045 54.5565 45.4869 54.8514 46.0762 54.8813L54.1713 54.9111C54.7308 54.8813 55.143 54.5565 55.35 53.9085V25.7036C55.143 25.0854 54.7606 24.7905 54.1713 24.7905H31.2087Z" fill="white"/>
<path d="M76.8705 25.9108C76.6354 25.1733 76.1637 24.7905 75.4568 24.7905H64.41C63.7329 24.7905 63.3207 25.1733 63.1734 25.9108L58.7037 43.8297C57.0847 50.4898 56.2603 53.8489 56.2901 53.9086C56.4374 54.5864 56.7867 54.9029 57.4092 54.9029H60.9717C61.1963 54.8839 61.4155 54.8244 61.619 54.7272C61.9033 54.5467 62.1046 54.2606 62.1785 53.9318L67.6563 32.1881L73.3378 53.7909C73.6027 54.5267 74.1026 54.9095 74.8095 54.9095L84.9375 54.8515C85.6146 54.8515 85.8794 54.4687 85.7321 53.6733L76.8705 25.9108Z" fill="white"/>
<path d="M90.826 60.2157H86.7586C86.5517 60.2157 86.464 60.3333 86.5219 60.5686L86.6692 60.6581L90.0844 65.3131L90.1142 65.4308L90.0844 69.0566L90.1142 69.1163C90.1144 69.1717 90.1264 69.2265 90.1495 69.2769C90.1726 69.3273 90.2062 69.3722 90.2481 69.4084C90.29 69.4447 90.3392 69.4716 90.3923 69.4872C90.4455 69.5029 90.5014 69.5069 90.5562 69.4991L93.6469 69.4394C93.7402 69.4464 93.8325 69.4164 93.904 69.356C93.9755 69.2956 94.0205 69.2095 94.0293 69.1163L94.0591 65.4606C94.0293 65.3429 94.0293 65.2551 94.0889 65.1954L96.7095 60.7459V60.4808C96.6875 60.3981 96.6367 60.3259 96.5663 60.2773C96.4959 60.2287 96.4105 60.2068 96.3254 60.2157H95.0011C94.9099 60.2135 94.8197 60.2346 94.7389 60.2769C94.6581 60.3192 94.5894 60.3814 94.5392 60.4576L92.8837 63.2748L91.4121 60.5637C91.3562 60.457 91.2718 60.3679 91.1684 60.3065C91.0649 60.245 90.9463 60.2136 90.826 60.2157Z" fill="white"/>
<path d="M29.6459 46.4811C29.3231 45.6525 29.0284 45.6525 28.7039 46.4811L21.8753 63.81C21.6711 64.4045 21.5134 65.014 21.4035 65.6329C21.3679 65.8865 21.3584 66.143 21.3753 66.3985C21.3455 68.3142 22.1103 69.9647 23.6416 71.3501C25.1431 72.7355 26.9988 73.4133 29.1774 73.4133C31.356 73.4133 33.1803 72.7355 34.6817 71.3501C36.1832 69.9647 36.9497 68.3142 36.9497 66.3985L36.9199 65.6329L36.8322 65.0728C36.7514 64.6282 36.6227 64.1936 36.4481 63.7769L29.6459 46.4811ZM26.3483 69.8471L26.6429 70.0824C25.9414 69.9278 25.2922 69.5932 24.759 69.1113C24.3965 68.8094 24.1053 68.4308 23.9067 68.0026C23.708 67.5745 23.6067 67.1076 23.6102 66.6355C23.6041 66.1888 23.695 65.746 23.8767 65.3379L24.3485 64.1034L24.2607 65.3114C24.2607 67.0531 24.9676 68.5777 26.3499 69.8521L26.3483 69.8471Z" fill="white"/>
</g>
<defs>
<clipPath id="clip0_41_274">
<rect width="218" height="50" fill="white" transform="translate(2 24)"/>
</clipPath>
</defs>
</svg>
