<svg width="221" height="104" viewBox="0 0 221 104" fill="none" xmlns="http://www.w3.org/2000/svg">
<g clip-path="url(#clip0_50_7939)">
<path d="M95.7619 36.001H102.138L98.9991 46.9876L104.002 45.7124L106.847 36.001H112.83L108.024 52.481L115.97 41.8867L117.735 35.9029H123.229L119.795 47.5762C119.697 47.9686 118.912 50.519 119.501 50.519C120.09 50.519 121.659 47.8705 123.327 44.7314C125.19 41.3962 126.76 37.8648 127.545 35.9029H133.332L130.488 45.8105L137.845 35.9029H188.854L65.8429 88.58L68.2952 80.2419L164.919 40.7095H146.085L144.221 46.8895L138.237 48.7533L140.69 40.7095H137.747L129.409 51.5L124.21 53.2657C124.504 50.6171 124.896 48.0667 125.583 45.5162L123.13 50.0286C121.169 53.56 119.599 56.4048 116.656 56.4048C114.498 56.4048 113.517 54.4429 113.517 51.7943C113.517 50.9114 113.615 49.8324 113.91 48.8514L106.062 59.3476L99.5876 61.5057L102.629 50.2248L97.7238 51.5L94.2905 63.3695L87.2276 65.7238L90.3667 54.7371L83.2057 63.86C80.1648 67.7838 77.0257 69.8438 74.5733 69.8438C69.7667 69.8438 69.08 61.8981 69.5705 58.759C66.9219 59.9362 66.039 60.4267 65.1562 60.9171C66.3333 77.8876 48.9705 101.332 37.9838 101.332C34.5505 101.332 32 98.6838 32 92.7981C32 83.9695 38.5724 71.2171 56.3276 61.1133C55.8371 57.68 54.66 54.7371 52.5019 52.8733V52.481C58.4857 47.8705 63.0962 42.6714 63.0962 38.061C63.0962 35.9029 61.4286 35.1181 59.6629 35.1181C56.3276 35.1181 51.9133 39.2381 49.559 42.6714H48.2838L50.2457 36.001C54.7581 30.0171 62.0171 27.859 65.941 27.859C69.9629 27.859 73.3962 29.4286 73.3962 34.2352C73.3962 39.9248 68.3933 45.9086 61.0362 50.421C62.7038 52.3829 63.881 54.541 64.4695 56.8952C66.2352 56.0124 68.099 55.0314 70.061 54.1486C72.219 43.7505 79.6743 35.7067 86.2467 35.7067C89.5819 35.7067 91.0533 37.6686 91.0533 40.4152C91.0533 46.6933 85.3638 51.5 77.2219 55.7181C77.0257 57.1895 77.0257 57.9743 77.0257 58.8571C77.0257 61.7019 77.6143 63.0752 78.6933 63.0752C79.38 63.0752 80.2629 62.3886 81.2438 61.3095L92.1324 48.361L95.7619 36.001ZM40.3381 90.8362C40.3381 92.2095 40.7305 94.3676 42.3 94.3676C48.3819 94.3676 56.1314 78.1819 56.4257 65.5276C45.7333 72.7867 40.3381 83.3809 40.3381 90.8362ZM84.481 41.5924C84.481 40.6114 84.0886 39.9248 83.5 39.9248C81.8324 39.9248 79.4781 45.1238 78.1048 51.0095C82.519 48.2629 84.481 44.5352 84.481 41.5924Z" fill="white"/>
<path d="M169.039 77.0048L169.235 74.9448H174.336V72.1H166.685L165.9 79.8495C166.783 79.5552 167.862 79.359 168.549 79.359C170.511 79.359 171.688 80.2419 171.688 81.419C171.688 82.3019 170.805 83.2829 169.235 83.2829C168.058 83.2829 166.685 82.7924 165.704 81.9095L165.312 85.0486C166.391 85.7352 167.862 86.3238 169.432 86.3238C173.061 86.3238 175.121 84.1657 175.121 81.419C175.121 78.0838 171.982 76.3181 169.039 77.0048Z" fill="white"/>
<path d="M164.036 76.22C164.036 73.8657 162.172 71.8057 158.837 71.8057C155.698 71.8057 153.638 73.7676 153.638 76.9067V77.0048H156.973V76.8086C156.973 75.3371 157.66 74.5524 158.837 74.5524C159.818 74.5524 160.505 75.239 160.505 76.22C160.505 76.9067 160.112 77.5933 159.426 78.4762L153.148 85.9314H163.84V82.9886H159.524L162.074 80.2419C163.35 78.7705 164.036 77.6914 164.036 76.22Z" fill="white"/>
<path d="M134.215 75.239H137.256V85.9314H140.69V72.1H135.883L134.215 75.239Z" fill="white"/>
<path d="M147.458 71.7076C144.123 71.7076 142.063 73.9638 142.063 76.8086C142.063 79.4571 144.123 81.2229 146.379 81.2229C146.869 81.2229 147.164 81.2229 147.654 81.1248L144.417 85.9314H148.341L150.303 82.9886C151.872 80.6343 152.755 78.8686 152.755 76.8086C152.755 73.8657 150.793 71.7076 147.458 71.7076ZM147.458 78.8686C146.281 78.8686 145.3 78.0838 145.3 76.7105C145.3 75.5333 146.085 74.5524 147.458 74.5524C148.733 74.5524 149.616 75.5333 149.616 76.7105C149.518 77.9857 148.733 78.8686 147.458 78.8686Z" fill="white"/>
<path d="M99.6858 1.66762L102.531 10.4962H111.752L104.296 15.8914L107.141 24.72L99.6858 19.3248L92.1324 24.72L94.9772 15.8914L87.522 10.4962H96.7429L99.6858 1.66762Z" fill="white"/>
<path d="M127.937 1.66762L130.782 10.4962H140.101L132.548 15.8914L135.491 24.72L127.937 19.3248L120.482 24.72L123.327 15.8914L115.773 10.4962H125.092L127.937 1.66762Z" fill="white"/>
</g>
<defs>
<clipPath id="clip0_50_7939">
<rect width="156.952" height="103" fill="white" transform="translate(32)"/>
</clipPath>
</defs>
</svg>
