<svg width="221" height="104" viewBox="0 0 221 104" fill="none" xmlns="http://www.w3.org/2000/svg">
<path fill-rule="evenodd" clip-rule="evenodd" d="M132.491 41.5626H141.673C141.034 45.1452 140.304 48.8081 139.563 52.3792C138.822 55.9502 138.092 59.6131 137.318 63.1957H127.933C128.674 59.6131 129.505 55.9502 130.234 52.3792C130.964 48.8081 131.705 45.1452 132.48 41.5626H132.491ZM143.335 41.5626C142.594 45.1452 141.954 48.8081 141.213 52.3792C140.472 55.9502 139.754 59.6131 138.968 63.1957H148.431L149.442 56.2373L153.764 63.1957H163.968L157.996 55.0087C167.369 53.7915 170.344 42.2286 158.456 41.666C157.715 41.666 156.334 41.5626 154.314 41.5626H143.335ZM150.957 47.4876H152.248C153.523 47.4153 154.8 47.5747 156.02 47.9584C156.214 48.0443 156.39 48.169 156.537 48.3251C156.683 48.4812 156.798 48.6657 156.875 48.8677C156.951 49.0697 156.987 49.2853 156.981 49.5018C156.975 49.7183 156.927 49.9313 156.839 50.1286C156.48 51.8165 154.729 52.0921 152.248 52.2873H150.003L150.923 47.4876H150.957ZM170.535 41.5626L190.663 41.666L189.473 47.3039H177.427L176.788 50.9668H188.732L187.822 55.3876H176.058L175.227 58.2123H187.721L186.711 63.1957H165.719L170.591 41.5626H170.535ZM37.5434 48.7162C36.3423 50.2204 33.6818 58.396 39.1936 58.1204C44.4809 57.8333 44.3462 51.4376 43.886 49.1411C43.3359 46.4197 38.9242 47.0742 37.5434 48.7737V48.7162ZM43.5155 41C47.3772 41 50.251 41.8497 51.9685 43.641C53.0244 44.5957 53.7361 45.8858 53.9891 47.3039C54.2576 48.9651 54.1657 50.6665 53.7197 52.2873C53.284 53.847 52.6339 55.3354 51.7889 56.7081C50.9334 58.051 49.8408 59.2192 48.5671 60.1528C45.2502 62.5671 41.2401 63.7794 37.173 63.5976C33.0419 63.5976 30.011 62.656 28.0801 60.681C27.0833 59.7578 26.4058 58.5291 26.1493 57.1788C25.8777 55.579 25.9699 53.9367 26.4187 52.3792C26.7903 51.0354 27.314 49.7406 27.9791 48.521C28.6246 47.4016 29.4306 46.3875 30.3702 45.5126C33.5022 42.5042 37.8128 41 43.5155 41ZM86.6224 48.7162C85.4325 50.2204 82.7607 58.396 88.3736 58.1204C93.515 57.8333 93.4252 51.4376 92.9649 49.0837C92.5047 46.3623 88.093 47.0168 86.6224 48.7162ZM92.5945 41C96.4561 41 99.3299 41.8497 101.059 43.641C102.141 44.5736 102.858 45.874 103.079 47.3039C103.339 48.9662 103.244 50.6665 102.799 52.2873C102.089 55.4524 100.298 58.2542 97.7471 60.1873C94.3857 62.5881 90.3485 63.7979 86.2519 63.632C82.1209 63.632 79.0899 62.6904 77.1591 60.7155C76.1598 59.7801 75.4826 58.5397 75.2283 57.1788C74.9566 55.579 75.0488 53.9367 75.4977 52.3792C75.8681 51.0332 76.3958 49.7378 77.0693 48.521C77.7108 47.402 78.513 46.3879 79.4491 45.5126C82.5811 42.5042 86.9928 41 92.5945 41ZM53.8095 41.666C54.6402 43.9625 55.4597 46.1786 56.2904 48.4292C57.1211 50.6797 57.9406 52.9418 58.7713 55.3187L54.3596 62.9201H64.1035L80.4033 41.666H70.9962C70.2422 42.6307 69.5378 43.6349 68.8857 44.6744C68.1448 45.616 67.5049 46.6494 66.7753 47.5795C66.1994 48.4312 65.7068 49.3389 65.3047 50.2893H65.1139C65.1694 49.439 65.1089 48.585 64.9342 47.7517C64.7434 46.7183 64.5638 45.6849 64.3842 44.6514C64.2046 43.618 64.1035 42.6764 63.9239 41.643L53.8095 41.666ZM6.47057 41.5626C6.20115 42.5042 6.02154 43.4458 5.7409 44.3873C5.46026 45.3289 5.28064 46.2705 5 47.3039H10.8037C10.1638 49.9334 9.52397 52.5629 8.78307 55.2039C8.04218 57.8448 7.40231 60.5547 6.76244 63.2416H16.0461C16.7758 60.6006 17.4269 57.8793 18.0668 55.2039C18.7066 52.5284 19.4475 49.9334 20.0874 47.3039H25.7901C25.9697 46.2705 26.2503 45.3289 26.4299 44.3873C26.6096 43.4458 26.8902 42.5042 27.1708 41.5626H6.47057ZM109.422 41.5626C109.128 42.4907 108.881 43.4335 108.681 44.3873C108.412 45.3289 108.221 46.2705 107.951 47.3039H113.733C113.093 49.9334 112.363 52.5629 111.712 55.2039C111.061 57.8448 110.331 60.5547 109.691 63.2416H118.975C119.716 60.6006 120.356 57.8793 120.996 55.2039C121.635 52.5284 122.376 49.9334 123.016 47.3039H128.674C128.854 46.2705 129.134 45.3289 129.314 44.3873C129.494 43.4458 129.774 42.5042 130.055 41.5626H109.422ZM213.922 56.0306C214.052 55.2976 213.984 54.5423 213.725 53.8461C213.466 53.1499 213.025 52.5395 212.452 52.0806C211.924 51.4808 211.267 51.0157 210.532 50.7226C209.797 50.4295 209.005 50.3165 208.22 50.3927C206.199 50.3927 201.787 50.9553 200.362 49.6463C198.532 47.8551 200.182 46.4427 202.203 46.4427C204.448 46.4427 205.054 46.5346 207.254 46.5346C209.454 46.5346 211.666 46.4427 213.877 46.4427C213.967 45.2945 214.888 42.6879 215 41.4593C212.519 41.5512 210.128 41.5512 207.647 41.5512C205.166 41.5512 202.775 41.5512 200.384 41.6545C198.363 41.6177 196.381 42.228 194.715 43.3998C193.962 43.899 193.313 44.5473 192.808 45.3065C192.303 46.0656 191.951 46.9204 191.774 47.8206C191.403 49.5085 191.583 51.9543 192.784 52.9877C194.07 54.1539 195.749 54.7633 197.465 54.6871H200.597C203.348 54.6871 204.728 54.5838 204.459 56.4669C204.178 58.7634 199.396 58.3501 197.724 58.3501H190.988C190.719 59.7624 190.258 61.7948 189.866 63.2416H206.592C207.459 63.2678 208.321 63.0959 209.116 62.7384C209.91 62.3808 210.616 61.8467 211.183 61.1748C211.948 60.5439 212.584 59.7648 213.054 58.882C213.524 57.9993 213.819 57.0303 213.922 56.0306Z" fill="white"/>
</svg>
